<svg width="171" height="127" viewBox="0 0 171 127" fill="none" xmlns="http://www.w3.org/2000/svg">
<path fill-rule="evenodd" clip-rule="evenodd" d="M59.1002 84.7C58.0002 86.7 56.2002 89.6 55.5002 92.3C55.6002 92 55.7002 91.9 55.8002 91.7C57.5002 89 61.5002 86.9 66.0002 85.1C67.1002 84.7 68.2002 84.3 69.4002 83.9C74.3002 82.2 79.5002 80.3 85.1002 74.5C85.2002 74.4 85.3002 74.2 85.4002 74.1C85.5002 74.2 85.6002 74.4 85.7002 74.5C90.9002 79.9 95.1002 81.5 100.8 83.6C102 84.1 103.3 84.5 104.7 85.1C109.5 87 113.5 89.1 115.1 91.9C115.2 92 115.3 92.2 115.3 92.3C114.6 89.6 112.8 86.6 111.7 84.7C103.7 70.6 90.6002 60.1 85.3002 47.7C79.5002 61 66.4002 71.8 59.1002 84.7Z" fill="#0870D1"/>
<path fill-rule="evenodd" clip-rule="evenodd" d="M47.0002 9.7C48.6002 8.5 52.8002 7.9 54.7002 7.8C56.5002 7.6 58.0002 7.6 59.6002 7.9C61.1002 8.1 62.6002 8.6 64.4002 9.5C69.6002 12.1 74.0002 17 77.5002 22.5C80.9002 28 83.3002 34 85.2002 39.2C85.2002 39.3 85.5002 40 85.5002 40C85.5002 40 85.8002 39.4 85.8002 39.2C87.7002 34.1 90.1002 28 93.5002 22.5C97.0002 16.9 101.3 12 106.6 9.5C108.3 8.7 109.8 8.2 111.4 7.9C112.9 7.7 114.5 7.7 116.3 7.8C118.3 8 122.4 8.6 124 9.7C117.3 3.7 94.2002 0.1 85.5002 0C76.7002 0.1 53.6002 3.7 47.0002 9.7Z" fill="#0870D1"/>
<path fill-rule="evenodd" clip-rule="evenodd" d="M73.6002 96.3C72.7002 97.7 74.1002 99 75.2002 100.1L85.4002 110.1L95.7002 100.1C96.7002 99.1 98.0002 98 97.5002 96.7C96.9002 95.1 94.2002 94.5 92.8002 94C90.2002 93.2 87.3002 92.4 85.4002 89.2C83.7002 92.3 80.3002 93.4 77.4002 94.4C76.4002 94.8 74.2002 95.3 73.6002 96.3Z" fill="#0870D1"/>
<path fill-rule="evenodd" clip-rule="evenodd" d="M73.5002 95.3C74.3002 94.6 75.7002 94.2 77.2002 93.7C80.1002 92.7 83.7002 91.6 85.2002 88.4L85.4002 88L85.6002 88.4C87.4002 91.7 90.3002 92.6 92.9002 93.3C94.6002 93.8 96.2002 94.3 97.3002 95.3L97.2002 95.1C95.8002 91.8 93.1002 88.2 90.8002 85.4C89.0002 83.2 86.6002 80.5 85.4002 78.2C84.2002 80.6 82.2002 82.9 80.2002 85.4C77.7002 88.4 75.1002 91.5 73.6002 95L73.5002 95.3Z" fill="#0870D1"/>
<path fill-rule="evenodd" clip-rule="evenodd" d="M59.9002 102.1L85.4002 126.6L111 102.1C115.4 97.9 116.1 94.8 114.7 92.2C113.2 89.6 109.4 87.6 104.6 85.7C103.2 85.1 101.9 84.7 100.7 84.2C97.4002 83 93.7002 81.4 90.4002 79.3C88.6002 78.1 86.5002 76.2 85.4002 74.9C89.2002 81 96.7002 87.1 99.8002 94.8C101.1 97.9 100.4 98.6 98.0002 100.8L85.7002 112.6L85.5002 112.8L85.3002 112.6L73.0002 100.8C70.7002 98.6 69.9002 98 71.2002 94.8C74.3002 87.1 80.9002 81.4 85.5002 74.9C84.1002 76.2 83.2002 77.4 81.5002 78.6C77.3002 81.8 73.4002 83.2 69.6002 84.5C68.5002 84.9 67.3002 85.3 66.3002 85.7C61.8002 87.5 58.0002 89.4 56.4002 92C54.8002 94.6 55.4002 97.8 59.9002 102.1Z" fill="#0870D1"/>
<path fill-rule="evenodd" clip-rule="evenodd" d="M118.3 21.8C110 26.7 102.2 32.4 95.0002 38.9C89.3002 44.3 88.8002 45 94.1002 50.9C95.0002 52 95.9002 53.1 96.8002 54.2C97.1002 54.7 97.9002 55.5 98.5002 56C98.5002 55.9 98.5002 55.8 98.5002 55.7C98.5002 52.4 105.6 41.9 107.6 39.1C113 31.7 120.3 23.9 127.5 20.3C130 19 132.6 18.3 135 18.3C136.2 18.3 137.4 18.5 138.6 18.8C139 18.9 139.3 19 139.7 19.2C137.4 17.6 135 16.4 132.1 16.4C127.5 16.5 122.1 19.6 118.3 21.8Z" fill="#0870D1"/>
<path fill-rule="evenodd" clip-rule="evenodd" d="M99.2002 55.9C99.5002 55.8 99.8002 55.6 100.2 55.3C100.2 55.3 101.2 54.4 101.4 54.3C101.8 53.9 102.2 53.6 102.4 53.4C106.7 49.3 112.8 45 117.8 41.8C123 38.4 128.5 35.3 134.1 32.6C136.8 31.1 139.4 30.2 141.5 29.5C143.7 28.7 145.5 28.1 146.1 27.3C147 26.2 145.9 24.5 141.5 21C140.5 20.3 139.5 19.8 138.4 19.5C137.3 19.2 136.2 19 135 19C132.7 19 130.2 19.7 127.8 20.9C120.7 24.4 113.5 32.2 108.1 39.5C102.8 46.8 99.2002 53.7 99.1002 55.6C99.1002 55.7 99.1002 55.8 99.1002 55.9H99.2002Z" fill="#0870D1"/>
<path fill-rule="evenodd" clip-rule="evenodd" d="M141.6 37.9C128.8 42.9 116.8 49.5 106.3 58C100.8 62.4 103.8 63.3 107.2 68.7C109.3 72.2 110.2 73.9 111.3 74.2C110.9 73.5 111.6 71.5 114 67.4C117.9 60.6 128.1 50.9 134.2 46.2C140.6 41.3 147.3 37.7 152.8 37.7C154.6 37.7 156.1 38.1 157.4 38.9C157.8 39.2 158.2 39.5 158.6 39.8C156.9 37.1 154.8 35.4 151.5 35.4C148.4 35.3 144.3 36.8 141.6 37.9Z" fill="#0870D1"/>
<path fill-rule="evenodd" clip-rule="evenodd" d="M114.5 67.6C112 71.9 111.3 73.6 111.7 73.8C112.2 74.1 114.4 72.3 117 70.3L118.1 69.4C123.5 65.7 129.2 62.3 135 59.4C140.8 56.5 146.9 54 153.1 51.9C153.1 51.8 157.7 50.5 158.2 50.3C159.4 50 160.3 49.7 160.9 49.4C162.5 48.6 162 47.4 159.8 42.7C159.1 41.3 158.2 40 156.8 39.2C155.6 38.5 154.2 38.2 152.6 38.2C147.3 38.2 140.7 41.7 134.4 46.6C126.1 53.1 118.2 61.9 114.5 67.6Z" fill="#0870D1"/>
<path fill-rule="evenodd" clip-rule="evenodd" d="M151.1 60.6C140.9 64 131.3 68.6 122.3 74.2C113.3 79.8 113.4 79.8 117.5 88.1C118.1 89.5 118.7 90.9 119.3 92.3C120 94 120.2 94.8 120.5 95.1C120.5 94.6 120.9 93.7 121.9 92.1C124.7 87 128.1 82.3 132 78C135.9 73.6 140.4 69.7 145.1 66.4C147.6 64.6 151.3 62.5 155 60.9C157.8 59.7 160.6 58.9 163 58.9C164.1 58.9 165.1 59.1 166 59.4C164.6 58.5 163 58.1 161.3 58.1C157.9 58.3 154.3 59.5 151.1 60.6Z" fill="#0870D1"/>
<path fill-rule="evenodd" clip-rule="evenodd" d="M52.7002 21.8C61.0002 26.7 68.8002 32.4 76.0002 38.9C81.7002 44.3 82.2002 45 76.9002 50.9C76.0002 52 75.1002 53.1 74.2002 54.2C73.9002 54.7 73.1002 55.5 72.5002 56C72.5002 55.9 72.5002 55.8 72.5002 55.7C72.5002 53.6 68.8002 46.6 63.4002 39.2C58.0002 31.8 50.7002 24 43.5002 20.4C41.0002 19.1 38.4002 18.4 36.0002 18.4C34.8002 18.4 33.6002 18.6 32.4002 18.9C32.0002 19 31.7002 19.1 31.3002 19.3C33.6002 17.7 36.0002 16.5 38.9002 16.5C43.4002 16.5 48.8002 19.6 52.7002 21.8Z" fill="#0870D1"/>
<path fill-rule="evenodd" clip-rule="evenodd" d="M71.7002 55.9C71.4002 55.8 71.0002 55.5 70.7002 55.3C70.0002 54.7 69.3002 54.1 68.6002 53.4C64.3002 49.3 58.2002 45 53.2002 41.7C48.0002 38.3 42.5002 35.2 36.9002 32.5C34.2002 31 31.6002 30.1 29.5002 29.4C27.3002 28.6 25.5002 28 24.9002 27.2C24.0002 26.1 25.1002 24.4 29.5002 20.9C30.5002 20.2 31.5002 19.7 32.6002 19.4C33.7002 19.1 34.8002 18.9 36.0002 18.9C38.3002 18.9 40.8002 19.6 43.2002 20.8C50.3002 24.3 57.5002 32.1 62.9002 39.4C68.2002 46.7 71.8002 53.5 71.9002 55.5C71.9002 55.6 71.9002 55.7 71.9002 55.8L71.7002 55.9Z" fill="#0870D1"/>
<path fill-rule="evenodd" clip-rule="evenodd" d="M29.3002 37.9C42.1002 42.9 54.1002 49.5 64.6002 58C70.1002 62.4 67.1002 63.3 63.7002 68.7C61.6002 72.2 60.7002 73.9 59.6002 74.2C60.2002 73.1 57.4002 68.2 56.8002 67.3C53.2002 61.5 45.3002 52.7 36.7002 46.1C30.3002 41.2 23.6002 37.6 18.1002 37.6C16.3002 37.6 14.8002 38 13.5002 38.8C13.1002 39.1 12.7002 39.4 12.3002 39.7C14.0002 37 16.1002 35.3 19.4002 35.3C22.8002 35.3 26.2002 36.8 29.3002 37.9Z" fill="#0870D1"/>
<path fill-rule="evenodd" clip-rule="evenodd" d="M56.4002 67.6C58.9002 71.9 59.6002 73.6 59.2002 73.8C58.7002 74.1 56.5002 72.3 53.9002 70.3L52.8002 69.4C47.4002 65.7 41.7002 62.3 35.9002 59.4C30.1002 56.5 24.0002 54 17.8002 51.9C17.8002 51.8 13.2002 50.5 12.7002 50.3C11.5002 50 10.6002 49.7 10.0002 49.4C8.40019 48.6 8.90019 47.4 11.1002 42.7C11.8002 41.2 12.8002 40.1 14.0002 39.3C15.2002 38.5 16.6002 38.2 18.3002 38.2C23.6002 38.2 30.2002 41.7 36.5002 46.6C44.8002 53.1 52.8002 61.9 56.4002 67.6Z" fill="#0870D1"/>
<path fill-rule="evenodd" clip-rule="evenodd" d="M19.8002 60.6C30.0002 64 39.6002 68.6 48.6002 74.2C57.6002 79.8 57.5002 79.8 53.4002 88.1C52.8002 89.5 52.2002 90.9 51.6002 92.3C50.9002 94 50.7002 94.8 50.4002 95.1C50.4002 94.6 50.0002 93.7 49.0002 92.1C46.2002 87.1 42.7002 82.3 38.8002 78C34.9002 73.6 30.4002 69.7 25.7002 66.4C23.2002 64.6 19.5002 62.5 15.8002 60.9C13.0002 59.7 10.2002 58.9 7.80019 58.9C6.70019 58.9 5.70019 59.1 4.80019 59.4C6.20019 58.5 7.80019 58.1 9.50019 58.1C13.0002 58.3 16.6002 59.5 19.8002 60.6Z" fill="#0870D1"/>
<path fill-rule="evenodd" clip-rule="evenodd" d="M25.4002 66.9C30.1002 70.2 34.5002 74.1 38.4002 78.4C42.3002 82.7 45.7002 87.4 48.4002 92.4C48.5002 92.6 49.8002 94.9 49.8002 94.9C49.8002 94.9 49.2002 94.5 48.4002 93.8C47.8002 93.3 47.1002 92.8 46.3002 92.3C40.4002 88.4 34.1002 85 27.6002 82C21.2002 79.1 14.6002 76.6 7.80019 74.7C6.40019 74.3 5.20019 74 4.20019 73.8C1.80019 73.2 0.600191 72.9 0.200191 72.2C-0.299809 71.4 0.200191 69.9 1.00019 66.7C1.20019 65.9 1.50019 65 1.70019 64.1C2.00019 62.8 2.60019 61.5 3.70019 60.6C4.70019 59.8 6.00019 59.4 7.60019 59.4C9.90019 59.4 12.7002 60.2 15.4002 61.3C19.2002 63 22.8002 65.2 25.4002 66.9Z" fill="#0870D1"/>
<path fill-rule="evenodd" clip-rule="evenodd" d="M63.8002 9.9C68.9002 12.4 73.2002 17.2 76.6002 22.7C79.9002 28 82.5002 33.8 84.4002 38.8C84.3002 38.7 84.2002 38.7 84.1002 38.6C83.8002 38.4 83.5002 38.1 83.3002 37.9C82.9002 37.4 82.4002 36.9 82.0002 36.4C81.6002 35.9 81.1002 35.4 80.6002 35C75.9002 30.1 70.8002 26.1 65.5002 22.4C60.2002 18.8 54.6002 15.6 48.6002 12.4C48.1002 12.1 46.7002 11.2 46.7002 10.6C46.6002 10 47.9002 9.5 48.2002 9.4C50.3002 8.6 53.8002 8.2 54.4002 8.1C56.1002 7.9 57.6002 7.9 59.1002 8.2C60.7002 8.6 62.2002 9.1 63.8002 9.9Z" fill="#0870D1"/>
<path fill-rule="evenodd" clip-rule="evenodd" d="M107.1 9.9C102 12.4 97.7002 17.2 94.3002 22.7C91.0002 28 88.4002 33.8 86.5002 38.8C86.6002 38.7 86.7002 38.7 86.8002 38.6C87.1002 38.4 87.4002 38.1 87.6002 37.9C88.0002 37.4 88.5002 36.9 88.9002 36.4C89.3002 35.9 89.8002 35.4 90.3002 35C95.0002 30.1 100.1 26.1 105.4 22.4C110.7 18.8 116.3 15.6 122.3 12.4C122.6 12.2 123 12 123.3 11.7C123.6 11.5 124.1 11 124.2 10.6C124.3 10 123 9.5 122.7 9.4C120.6 8.6 117.1 8.2 116.5 8.1C114.8 7.9 113.3 7.9 111.8 8.2C110.2 8.6 108.7 9.1 107.1 9.9Z" fill="#0870D1"/>
<path fill-rule="evenodd" clip-rule="evenodd" d="M145.6 66.9C140.9 70.2 136.5 74.1 132.6 78.4C128.7 82.7 125.3 87.4 122.6 92.4C122.5 92.6 121.2 94.9 121.2 94.9C121.2 94.9 121.8 94.5 122.6 93.8C128.5 89.3 136.6 85.1 143.3 82C149.7 79.1 156.3 76.6 163.1 74.7C164.5 74.3 165.7 74 166.7 73.8C169.1 73.2 170.3 72.9 170.7 72.2C171.2 71.4 170.7 69.9 169.9 66.7C169.7 65.9 169.4 65 169.2 64.1C168.9 62.8 168.3 61.5 167.2 60.6C166.2 59.8 164.9 59.4 163.3 59.4C161 59.4 158.2 60.2 155.5 61.3C151.7 63 148.1 65.2 145.6 66.9Z" fill="#0870D1"/>
</svg>
