<svg width="380" height="323" viewBox="0 0 380 323" fill="none" xmlns="http://www.w3.org/2000/svg">
<path fill-rule="evenodd" clip-rule="evenodd" d="M153.009 119.13C151.495 121.901 148.972 125.93 147.963 129.96C148.215 129.708 148.215 129.456 148.468 129.205C150.739 125.427 156.542 122.404 162.85 119.886C164.364 119.382 165.878 118.626 167.644 118.123C174.457 115.604 181.774 113.086 189.596 105.026C189.849 104.774 189.849 104.774 190.101 104.522C190.353 104.774 190.353 104.774 190.606 105.026C197.923 112.582 203.727 114.849 212.053 117.871C213.82 118.626 215.586 119.13 217.604 119.886C224.417 122.656 229.968 125.427 232.239 129.456C232.239 129.708 232.492 129.96 232.492 129.96C231.482 126.182 228.959 121.901 227.445 119.13C216.09 99.2332 197.671 84.6252 190.353 67.2468C181.774 85.8845 163.355 100.996 153.009 119.13Z" fill="white"/>
<path fill-rule="evenodd" clip-rule="evenodd" d="M136.104 13.6005C138.375 11.8375 144.178 11.0819 146.954 10.83C149.477 10.5782 151.748 10.5782 153.766 10.83C156.037 11.0819 158.056 11.8375 160.579 13.0968C167.897 16.6228 173.952 23.6749 178.999 31.4826C183.793 39.0384 187.073 47.6017 189.849 54.9057C189.849 55.1575 190.353 55.9131 190.353 55.9131L190.858 54.9057C193.634 47.6017 196.914 39.0384 201.708 31.4826C206.754 23.6749 212.81 16.8747 220.128 13.0968C222.651 11.8375 224.669 11.0819 226.94 10.83C229.211 10.5782 231.23 10.5782 233.753 10.83C236.529 11.0819 242.332 11.8375 244.603 13.6005C235.015 5.03722 202.465 0 190.101 0C177.737 0 145.44 5.03722 136.104 13.6005Z" fill="white"/>
<path fill-rule="evenodd" clip-rule="evenodd" d="M173.448 135.249C172.186 137.264 174.205 139.027 175.719 140.538L190.101 154.643L204.484 140.538C205.998 139.027 207.764 137.516 207.007 135.753C206.25 133.486 202.465 132.731 200.446 131.975C196.662 130.968 192.624 129.708 190.101 125.175C187.83 129.456 182.784 131.219 178.747 132.479C177.233 133.234 174.205 133.99 173.448 135.249Z" fill="white"/>
<path fill-rule="evenodd" clip-rule="evenodd" d="M173.448 133.99C174.709 132.983 176.476 132.479 178.747 131.723C182.784 130.464 187.83 128.701 190.101 124.167L190.353 123.664L190.606 124.167C193.129 128.701 197.166 129.96 200.951 131.219C203.222 131.975 205.493 132.479 207.259 133.99V133.738C205.241 128.953 201.456 124.167 198.175 120.138C195.652 117.115 192.372 113.337 190.606 110.063C188.839 113.337 186.064 116.612 183.288 120.138C179.756 124.419 175.971 128.701 173.952 133.738L173.448 133.99Z" fill="white"/>
<path fill-rule="evenodd" clip-rule="evenodd" d="M154.271 143.561L190.353 178.066L226.183 143.561C232.239 137.768 233.501 133.234 231.23 129.708C229.211 126.182 223.66 123.16 217.1 120.641C215.081 119.886 213.315 119.13 211.549 118.626C206.754 116.863 201.708 114.849 197.166 111.574C194.643 109.811 191.615 107.041 190.101 105.278C195.4 113.841 205.997 122.404 210.287 133.234C212.053 137.516 211.044 138.523 207.764 141.798L190.353 158.42L190.101 158.672L189.849 158.42L172.438 141.798C169.158 138.775 168.149 138.02 169.915 133.234C174.205 122.404 183.541 114.345 190.101 105.278C188.082 107.041 186.821 108.804 184.55 110.567C178.746 115.1 173.195 116.863 167.897 118.878C166.383 119.382 164.616 119.886 163.102 120.641C156.794 123.16 151.495 125.93 149.225 129.456C146.954 132.983 147.963 137.516 154.271 143.561Z" fill="white"/>
<path fill-rule="evenodd" clip-rule="evenodd" d="M236.276 30.727C224.417 37.5273 213.567 45.5868 203.474 54.6538C195.4 62.2096 194.643 63.2171 202.213 71.5285C203.474 73.0396 204.736 74.5508 205.998 76.062C206.502 76.8176 207.511 77.825 208.521 78.5806C208.521 78.5806 208.521 78.3287 208.521 78.0769C208.521 73.2915 218.614 58.6836 221.389 54.9057C228.959 44.5794 239.304 33.4975 249.397 28.4603C252.93 26.6972 256.462 25.6898 259.995 25.6898C261.761 25.6898 263.527 25.9417 265.041 26.4454C265.546 26.6972 266.051 26.6972 266.555 26.9491C263.275 24.6824 259.995 23.1712 255.958 23.1712C249.397 23.1712 241.575 27.4528 236.276 30.727Z" fill="white"/>
<path fill-rule="evenodd" clip-rule="evenodd" d="M209.53 78.5806C209.782 78.3287 210.287 78.0769 210.792 77.825L212.306 76.5657C212.81 76.062 213.315 75.5583 213.82 75.3064C219.875 69.5136 228.454 63.4689 235.519 58.9354C242.837 54.1501 250.659 49.8684 258.481 46.0905C262.266 44.0756 265.798 42.8163 269.078 41.8089C272.106 40.8015 274.63 39.794 275.639 38.7866C276.9 37.2754 275.387 34.7568 269.078 29.9714C267.565 28.964 266.303 28.2084 264.789 27.9566C263.275 27.4528 261.761 27.201 259.995 27.201C256.715 27.201 253.182 28.2084 249.902 29.9714C239.809 35.0087 229.716 45.8387 222.146 56.165C214.577 66.4913 209.53 76.062 209.53 78.8324C209.278 78.3287 209.278 78.3287 209.53 78.5806Z" fill="white"/>
<path fill-rule="evenodd" clip-rule="evenodd" d="M269.078 53.3945C251.163 60.4466 234.258 69.7654 219.371 81.6029C211.549 87.8994 215.838 89.1587 220.632 96.7146C223.66 101.5 224.922 104.019 226.436 104.27C225.931 103.263 226.94 100.492 230.221 94.6997C235.772 85.129 249.902 71.5285 258.733 64.9801C267.817 58.1798 277.153 53.1426 284.975 53.1426C287.498 53.1426 289.517 53.6464 291.535 54.9057C292.04 55.1575 292.545 55.6612 293.049 56.165C290.778 52.387 287.75 49.8684 282.956 49.8684C278.667 49.6166 273.116 51.8833 269.078 53.3945Z" fill="white"/>
<path fill-rule="evenodd" clip-rule="evenodd" d="M230.978 94.9515C227.445 100.996 226.436 103.263 226.94 103.767C227.697 104.27 230.725 101.752 234.51 98.9813L236.024 97.722C243.594 92.4329 251.668 87.8994 259.995 83.6178C268.322 79.588 276.648 76.062 285.48 73.0396C285.48 72.7878 292.04 71.0247 292.797 70.7729C294.563 70.2692 295.825 70.0173 296.582 69.5136C298.853 68.5061 298.096 66.7431 295.068 60.1947C294.059 58.1798 292.797 56.4168 290.778 55.4094C289.264 54.4019 287.246 53.8982 284.975 53.8982C277.405 53.8982 268.322 58.9354 259.238 65.7357C247.379 74.5508 236.276 86.892 230.978 94.9515Z" fill="white"/>
<path fill-rule="evenodd" clip-rule="evenodd" d="M282.452 85.129C268.069 89.9143 254.696 96.4627 241.828 104.27C229.211 112.078 229.464 112.078 235.015 123.916C235.772 125.93 236.781 127.945 237.538 129.96C238.547 132.227 238.8 133.486 239.304 133.99C239.304 133.234 239.809 131.975 241.323 129.708C245.36 122.656 250.154 115.856 255.453 109.811C261.004 103.767 267.312 98.2257 273.873 93.4404C277.405 90.9218 282.704 87.8994 287.75 85.8845C291.788 84.1215 295.825 83.1141 299.105 83.1141C300.619 83.1141 302.133 83.3659 303.142 83.8697C301.124 82.6104 298.853 82.1066 296.582 82.1066C292.04 81.8548 286.993 83.6178 282.452 85.129Z" fill="white"/>
<path fill-rule="evenodd" clip-rule="evenodd" d="M143.926 30.727C155.785 37.5273 166.635 45.5868 176.728 54.6538C184.802 62.2096 185.559 63.2171 177.99 71.5285C176.728 73.0396 175.466 74.5508 174.205 76.062C173.7 76.8176 172.691 77.825 171.681 78.5806C171.681 78.3287 171.681 78.3287 171.681 78.0769C171.681 75.0545 166.383 65.232 158.813 54.9057C151.243 44.5794 140.898 33.4975 130.805 28.4603C127.272 26.6972 123.74 25.6898 120.207 25.6898C118.441 25.6898 116.675 25.9417 115.161 26.4454C114.656 26.6972 114.152 26.6972 113.647 26.9491C116.927 24.6824 120.207 23.1712 124.245 23.1712C131.057 23.1712 138.627 27.4528 143.926 30.727Z" fill="white"/>
<path fill-rule="evenodd" clip-rule="evenodd" d="M170.672 78.5806C170.167 78.3287 169.663 78.0769 169.411 77.5731C168.401 76.8176 167.392 75.8101 166.383 74.8027C160.327 69.0099 151.748 62.9652 144.683 58.4317C137.365 53.6464 129.543 49.3647 121.721 45.5868C117.936 43.5719 114.404 42.3126 111.124 41.3052C108.096 40.2977 105.573 39.2903 104.563 38.2828C103.302 36.7717 104.816 34.2531 111.124 29.4677C112.638 28.4603 113.899 27.7047 115.413 27.4528C116.927 26.9491 118.441 26.6972 120.207 26.6972C123.488 26.6972 127.02 27.7047 130.3 29.4677C140.393 34.5049 150.486 45.335 158.056 55.6612C165.626 65.9875 170.672 75.5583 170.672 78.3287C170.924 78.3287 170.924 78.3287 170.672 78.5806Z" fill="white"/>
<path fill-rule="evenodd" clip-rule="evenodd" d="M111.124 53.1426C129.039 60.1947 145.944 69.5136 160.832 81.351C168.654 87.6476 164.364 88.9069 159.57 96.4627C156.542 101.248 155.28 103.767 153.766 104.019C154.523 102.507 150.739 95.4552 149.982 94.4478C144.683 86.3883 133.581 73.7952 121.469 64.7282C112.385 57.928 103.049 52.8908 95.2273 52.8908C92.704 52.8908 90.6854 53.3945 88.9192 54.6538C88.4145 54.9057 87.6575 55.4094 87.1529 55.9131C89.4238 52.1352 92.4517 49.6166 97.2458 49.6166C101.788 49.6166 106.834 51.8833 111.124 53.1426Z" fill="white"/>
<path fill-rule="evenodd" clip-rule="evenodd" d="M149.225 94.9515C152.757 100.996 153.766 103.263 153.262 103.767C152.505 104.27 149.477 101.752 145.692 98.9813L144.178 97.722C136.608 92.4329 128.534 87.8994 120.207 83.6178C111.881 79.588 103.554 76.062 94.7226 73.0396C94.7226 72.7878 88.1622 71.0247 87.4052 70.7729C85.6389 70.2692 84.3773 70.0173 83.6203 69.5136C81.3494 68.5061 82.1064 66.7431 85.1343 60.1947C86.1436 58.1798 87.4052 56.4168 89.1715 55.4094C90.9377 54.4019 92.9563 53.8982 95.2272 53.8982C102.797 53.8982 111.881 58.9354 120.964 65.7357C132.824 74.5508 144.178 86.892 149.225 94.9515Z" fill="white"/>
<path fill-rule="evenodd" clip-rule="evenodd" d="M97.7505 85.129C112.133 89.9143 125.506 96.4627 138.375 104.27C150.991 112.078 150.739 112.078 145.187 123.916C144.43 125.93 143.421 127.945 142.664 129.96C141.655 132.227 141.403 133.486 140.898 133.99C140.898 133.234 140.393 131.975 138.879 129.708C134.842 122.656 130.048 115.856 124.749 109.811C119.198 103.767 112.89 98.2257 106.329 93.4404C102.797 90.9218 97.4982 87.8994 92.4517 85.8845C88.4145 84.1215 84.3773 83.1141 81.0971 83.1141C79.5832 83.1141 78.0692 83.3659 77.0599 83.8697C79.0785 82.6104 81.3494 82.1066 83.6203 82.1066C88.1622 81.8548 93.2087 83.6178 97.7505 85.129Z" fill="white"/>
<path fill-rule="evenodd" clip-rule="evenodd" d="M105.573 93.9441C112.133 98.4776 118.441 104.019 123.992 110.063C129.543 116.108 134.337 122.656 138.122 129.708C138.375 129.96 140.141 133.234 140.141 133.234C140.141 133.234 139.384 132.479 138.122 131.723C137.365 130.968 136.356 130.212 135.094 129.708C126.768 124.167 117.936 119.382 108.853 115.352C99.7691 111.322 90.4331 107.796 81.0971 105.026C79.0785 104.522 77.5646 104.019 76.0506 103.767C72.7704 103.011 71.0041 102.507 70.4995 101.5C69.7425 100.241 70.4995 98.2257 71.7611 93.6922C72.0134 92.4329 72.5181 91.1736 72.7704 89.9143C73.2751 88.1513 74.032 86.1364 75.546 85.129C76.8076 84.1215 78.8262 83.6178 81.0971 83.6178C84.3773 83.6178 88.1622 84.6252 92.1994 86.3883C96.7412 88.655 102.04 91.6773 105.573 93.9441Z" fill="white"/>
<path fill-rule="evenodd" clip-rule="evenodd" d="M159.57 13.8523C166.887 17.3784 172.691 24.1786 177.737 31.9863C182.279 39.2903 186.064 47.6017 188.587 54.6538C188.335 54.6538 188.335 54.4019 188.082 54.4019C187.578 54.1501 187.326 53.6464 186.821 53.3945C186.316 52.6389 185.559 51.8833 185.055 51.3796C184.298 50.624 183.793 50.1203 183.036 49.3647C176.476 42.5645 169.41 36.7717 161.841 31.7345C154.271 26.6972 146.449 22.1638 138.122 17.6303C137.365 17.1265 135.599 16.1191 135.347 15.1116C135.347 14.3561 137.113 13.6005 137.618 13.3486C140.646 12.3412 145.44 11.5856 146.449 11.5856C148.972 11.3337 150.991 11.3337 153.009 11.5856C155.28 12.0893 157.299 12.8449 159.57 13.8523Z" fill="white"/>
<path fill-rule="evenodd" clip-rule="evenodd" d="M220.632 13.8523C213.315 17.3784 207.511 24.1786 202.465 31.9863C197.923 39.2903 194.138 47.6017 191.615 54.6538C191.867 54.6538 191.867 54.4019 192.12 54.4019C192.624 54.1501 192.877 53.6464 193.381 53.3945C193.886 52.6389 194.643 51.8833 195.148 51.3796C195.905 50.624 196.409 50.1203 197.166 49.3647C203.727 42.5645 210.792 36.7717 218.361 31.7345C225.931 26.6972 233.753 22.1638 242.08 17.6303C242.584 17.3784 243.089 17.1265 243.594 16.6228C243.846 16.371 244.855 15.6154 244.855 15.1116C244.855 14.3561 243.089 13.6005 242.584 13.3486C239.557 12.3412 234.762 11.5856 233.753 11.5856C231.23 11.3337 229.211 11.3337 227.193 11.5856C224.922 12.0893 222.903 12.8449 220.632 13.8523Z" fill="white"/>
<path fill-rule="evenodd" clip-rule="evenodd" d="M274.63 93.9441C268.069 98.4776 261.761 104.019 256.21 110.063C250.659 116.108 245.865 122.656 242.08 129.708C241.828 129.96 240.061 133.234 240.061 133.234C240.061 133.234 240.818 132.479 242.08 131.723C250.407 125.427 261.761 119.382 271.349 115.1C280.433 111.071 289.769 107.545 299.105 104.774C301.124 104.27 302.638 103.767 304.152 103.515C307.432 102.759 309.198 102.255 309.703 101.248C310.46 99.9887 309.703 97.9739 308.441 93.4404C308.189 92.1811 307.684 90.9218 307.432 89.6624C306.927 87.8994 306.17 85.8845 304.656 84.8771C303.395 83.8697 301.376 83.3659 299.105 83.3659C295.825 83.3659 292.04 84.3734 288.003 86.1364C283.461 88.655 278.162 91.6773 274.63 93.9441Z" fill="white"/>
<path fill-rule="evenodd" clip-rule="evenodd" d="M25.3335 303.951C72.0134 298.158 128.786 294.884 190.101 294.884C251.416 294.884 308.441 298.158 354.869 303.951C311.469 295.639 253.687 290.602 190.101 290.602C126.515 290.854 68.7332 295.891 25.3335 303.951Z" fill="white"/>
<path d="M95.3636 211.22C95.1803 210.495 94.9283 209.829 94.6075 209.221C94.2867 208.614 93.8743 208.088 93.3702 207.644C92.8661 207.2 92.2704 206.861 91.583 206.627C90.9186 206.37 90.1395 206.242 89.2459 206.242C87.9399 206.242 86.8057 206.51 85.8434 207.048C84.904 207.585 84.1364 208.31 83.5406 209.221C82.9449 210.109 82.4981 211.126 82.2002 212.271C81.9253 213.417 81.7878 214.585 81.7878 215.777C81.7878 216.969 81.9253 218.138 82.2002 219.283C82.4981 220.428 82.9449 221.456 83.5406 222.368C84.1364 223.256 84.904 223.969 85.8434 224.506C86.8057 225.044 87.9399 225.312 89.2459 225.312C90.2083 225.312 91.056 225.149 91.7892 224.822C92.5225 224.471 93.1526 224.004 93.6796 223.419C94.2065 222.812 94.619 222.111 94.9168 221.316C95.2147 220.521 95.4095 219.668 95.5011 218.757H99.6942C99.6025 220.253 99.2817 221.62 98.7318 222.858C98.2048 224.097 97.4831 225.172 96.5666 226.084C95.6501 226.972 94.5732 227.661 93.3359 228.152C92.0986 228.643 90.7353 228.888 89.2459 228.888C87.4129 228.888 85.7632 228.549 84.2968 227.872C82.8533 227.17 81.6274 226.224 80.6193 225.032C79.6111 223.84 78.8321 222.449 78.2822 220.86C77.7552 219.271 77.4917 217.577 77.4917 215.777C77.4917 214.001 77.7552 212.318 78.2822 210.729C78.8321 209.14 79.6111 207.749 80.6193 206.557C81.6274 205.365 82.8533 204.419 84.2968 203.717C85.7632 203.016 87.4129 202.666 89.2459 202.666C90.6207 202.666 91.9153 202.864 93.1296 203.262C94.344 203.636 95.4095 204.197 96.326 204.944C97.2654 205.669 98.0215 206.557 98.5943 207.609C99.1672 208.66 99.5223 209.864 99.6598 211.22H95.3636Z" fill="white"/>
<path d="M103.601 203.262H115.321C118.025 203.262 120.053 203.858 121.404 205.05C122.756 206.242 123.432 207.901 123.432 210.028C123.432 211.22 123.26 212.213 122.917 213.008C122.573 213.779 122.172 214.41 121.714 214.901C121.256 215.368 120.797 215.707 120.339 215.917C119.904 216.128 119.583 216.268 119.377 216.338V216.408C119.743 216.455 120.133 216.572 120.545 216.759C120.981 216.946 121.382 217.249 121.748 217.67C122.115 218.067 122.413 218.593 122.642 219.248C122.894 219.902 123.02 220.72 123.02 221.702C123.02 223.174 123.123 224.518 123.329 225.733C123.558 226.925 123.902 227.778 124.36 228.292H119.755C119.434 227.755 119.239 227.159 119.17 226.504C119.125 225.85 119.102 225.219 119.102 224.611C119.102 223.466 119.033 222.485 118.896 221.667C118.758 220.825 118.506 220.136 118.139 219.598C117.773 219.037 117.269 218.628 116.627 218.371C116.009 218.114 115.207 217.986 114.221 217.986H107.897V228.292H103.601V203.262ZM107.897 214.655H114.943C116.318 214.655 117.36 214.328 118.071 213.674C118.781 212.996 119.136 211.991 119.136 210.659C119.136 209.864 119.022 209.221 118.792 208.731C118.563 208.216 118.243 207.819 117.83 207.539C117.441 207.258 116.982 207.071 116.455 206.978C115.951 206.884 115.424 206.838 114.874 206.838H107.897V214.655Z" fill="white"/>
<path d="M132.918 218.476L123.707 203.262H128.69L135.186 214.48L141.579 203.262H146.391L137.214 218.476V228.292H132.918V218.476Z" fill="white"/>
<path d="M151.63 219.949C151.63 220.907 151.79 221.725 152.111 222.403C152.432 223.081 152.879 223.641 153.451 224.085C154.024 224.506 154.677 224.822 155.41 225.032C156.167 225.219 156.98 225.312 157.851 225.312C158.79 225.312 159.592 225.207 160.256 224.997C160.921 224.763 161.459 224.471 161.872 224.121C162.284 223.77 162.582 223.373 162.765 222.929C162.949 222.461 163.04 221.994 163.04 221.526C163.04 220.568 162.823 219.867 162.387 219.423C161.975 218.955 161.517 218.628 161.013 218.441C160.142 218.114 159.122 217.81 157.954 217.53C156.808 217.226 155.387 216.84 153.692 216.373C152.638 216.093 151.756 215.73 151.046 215.286C150.358 214.819 149.808 214.305 149.396 213.744C148.983 213.183 148.685 212.587 148.502 211.956C148.342 211.325 148.262 210.682 148.262 210.028C148.262 208.766 148.514 207.679 149.018 206.767C149.545 205.833 150.232 205.061 151.08 204.454C151.928 203.846 152.89 203.402 153.967 203.122C155.044 202.818 156.132 202.666 157.232 202.666C158.515 202.666 159.718 202.841 160.841 203.192C161.986 203.519 162.983 204.021 163.831 204.699C164.702 205.377 165.389 206.218 165.893 207.223C166.397 208.205 166.649 209.35 166.649 210.659H162.353C162.238 209.046 161.7 207.913 160.738 207.258C159.775 206.58 158.549 206.242 157.06 206.242C156.556 206.242 156.04 206.3 155.513 206.417C154.986 206.51 154.505 206.686 154.07 206.943C153.635 207.176 153.268 207.504 152.97 207.924C152.695 208.345 152.558 208.871 152.558 209.502C152.558 210.39 152.821 211.091 153.348 211.605C153.898 212.096 154.608 212.47 155.479 212.727C155.571 212.75 155.926 212.856 156.545 213.043C157.186 213.206 157.896 213.393 158.675 213.603C159.454 213.814 160.211 214.024 160.944 214.235C161.7 214.421 162.238 214.562 162.559 214.655C163.361 214.912 164.06 215.263 164.656 215.707C165.251 216.151 165.744 216.665 166.134 217.249C166.546 217.81 166.844 218.418 167.027 219.072C167.233 219.727 167.337 220.381 167.337 221.036C167.337 222.438 167.05 223.641 166.477 224.646C165.927 225.628 165.194 226.434 164.278 227.065C163.361 227.696 162.319 228.152 161.15 228.433C159.981 228.736 158.79 228.888 157.576 228.888C156.178 228.888 154.86 228.713 153.623 228.362C152.386 228.012 151.309 227.474 150.392 226.75C149.476 226.025 148.743 225.102 148.193 223.98C147.643 222.835 147.357 221.491 147.334 219.949H151.63Z" fill="white"/>
<path d="M168.761 203.262H188.626V207.048H180.824V228.292H176.528V207.048H168.761V203.262Z" fill="white"/>
<path d="M194.88 203.262H199.452L208.903 228.292H204.298L201.995 221.667H192.2L189.897 228.292H185.463L194.88 203.262ZM193.368 218.336H200.861L197.183 207.574H197.08L193.368 218.336Z" fill="white"/>
<path d="M211.24 203.262H215.536V224.506H228.012V228.292H211.24V203.262Z" fill="white"/>
<path d="M244.837 213.744H251.848C252.88 213.744 253.739 213.452 254.426 212.867C255.114 212.26 255.457 211.395 255.457 210.273C255.457 209.011 255.148 208.123 254.529 207.609C253.911 207.095 253.017 206.838 251.848 206.838H244.837V213.744ZM240.541 203.262H252.467C254.667 203.262 256.431 203.776 257.76 204.804C259.089 205.833 259.753 207.387 259.753 209.467C259.753 210.729 259.444 211.816 258.825 212.727C258.23 213.615 257.37 214.305 256.248 214.795V214.866C257.76 215.193 258.906 215.929 259.685 217.074C260.464 218.196 260.853 219.61 260.853 221.316C260.853 222.298 260.681 223.221 260.338 224.085C259.994 224.927 259.456 225.663 258.722 226.294C257.989 226.902 257.05 227.393 255.904 227.766C254.758 228.117 253.395 228.292 251.814 228.292H240.541V203.262ZM244.837 224.716H252.433C253.739 224.716 254.747 224.378 255.457 223.7C256.19 222.999 256.557 222.017 256.557 220.755C256.557 219.516 256.19 218.57 255.457 217.915C254.747 217.238 253.739 216.899 252.433 216.899H244.837V224.716Z" fill="white"/>
<path d="M271.305 203.262H275.876L285.328 228.292H280.722L278.419 221.667H268.624L266.321 228.292H261.888L271.305 203.262ZM269.793 218.336H277.285L273.608 207.574H273.505L269.793 218.336Z" fill="white"/>
<path d="M291.506 218.476L282.295 203.262H287.279L293.775 214.48L300.167 203.262H304.979L295.802 218.476V228.292H291.506V218.476Z" fill="white"/>
<path d="M77.4351 267.514H74.6856L74.0326 264.569C72.8869 265.901 71.7413 266.825 70.5956 267.339C69.45 267.853 68.1325 268.11 66.6432 268.11C64.8102 268.11 63.1605 267.771 61.694 267.093C60.2505 266.392 59.0247 265.446 58.0165 264.254C57.0083 263.062 56.2293 261.671 55.6794 260.082C55.1524 258.493 54.8889 256.798 54.8889 254.999C54.8889 253.222 55.1524 251.54 55.6794 249.951C56.2293 248.361 57.0083 246.971 58.0165 245.779C59.0247 244.587 60.2505 243.64 61.694 242.939C63.1605 242.238 64.8102 241.887 66.6432 241.887C67.9721 241.887 69.2323 242.074 70.4238 242.448C71.6382 242.799 72.7151 243.336 73.6545 244.061C74.5939 244.762 75.373 245.65 75.9916 246.725C76.6103 247.8 76.9998 249.039 77.1602 250.441H72.9671C72.8525 249.623 72.6005 248.91 72.211 248.303C71.8444 247.672 71.3747 247.146 70.8018 246.725C70.229 246.305 69.5875 245.989 68.8772 245.779C68.1669 245.568 67.4222 245.463 66.6432 245.463C65.3372 245.463 64.203 245.732 63.2406 246.27C62.3012 246.807 61.5336 247.532 60.9379 248.443C60.3422 249.331 59.8954 250.348 59.5975 251.493C59.3225 252.638 59.1851 253.807 59.1851 254.999C59.1851 256.191 59.3225 257.359 59.5975 258.504C59.8954 259.65 60.3422 260.678 60.9379 261.589C61.5336 262.477 62.3012 263.19 63.2406 263.728C64.203 264.265 65.3372 264.534 66.6432 264.534C67.743 264.558 68.7168 264.417 69.5646 264.113C70.4123 263.786 71.1226 263.331 71.6955 262.746C72.2912 262.139 72.738 261.402 73.0358 260.538C73.3337 259.673 73.4941 258.715 73.517 257.663H66.9869V254.333H77.4351V267.514Z" fill="white"/>
<path d="M92.5503 245.463C91.2443 245.463 90.1101 245.732 89.1478 246.27C88.2083 246.807 87.4408 247.532 86.845 248.443C86.2493 249.331 85.8025 250.348 85.5046 251.493C85.2297 252.638 85.0922 253.807 85.0922 254.999C85.0922 256.191 85.2297 257.359 85.5046 258.504C85.8025 259.65 86.2493 260.678 86.845 261.589C87.4408 262.477 88.2083 263.19 89.1478 263.728C90.1101 264.265 91.2443 264.534 92.5503 264.534C93.8563 264.534 94.9791 264.265 95.9185 263.728C96.8808 263.19 97.6599 262.477 98.2556 261.589C98.8513 260.678 99.2867 259.65 99.5616 258.504C99.8595 257.359 100.008 256.191 100.008 254.999C100.008 253.807 99.8595 252.638 99.5616 251.493C99.2867 250.348 98.8513 249.331 98.2556 248.443C97.6599 247.532 96.8808 246.807 95.9185 246.27C94.9791 245.732 93.8563 245.463 92.5503 245.463ZM92.5503 241.887C94.3833 241.887 96.0216 242.238 97.4651 242.939C98.9315 243.64 100.169 244.587 101.177 245.779C102.185 246.971 102.953 248.361 103.48 249.951C104.03 251.54 104.305 253.222 104.305 254.999C104.305 256.798 104.03 258.493 103.48 260.082C102.953 261.671 102.185 263.062 101.177 264.254C100.169 265.446 98.9315 266.392 97.4651 267.093C96.0216 267.771 94.3833 268.11 92.5503 268.11C90.7173 268.11 89.0676 267.771 87.6011 267.093C86.1576 266.392 84.9318 265.446 83.9236 264.254C82.9155 263.062 82.1365 261.671 81.5865 260.082C81.0596 258.493 80.796 256.798 80.796 254.999C80.796 253.222 81.0596 251.54 81.5865 249.951C82.1365 248.361 82.9155 246.971 83.9236 245.779C84.9318 244.587 86.1576 243.64 87.6011 242.939C89.0676 242.238 90.7173 241.887 92.5503 241.887Z" fill="white"/>
<path d="M108.215 242.483H112.511V263.728H124.987V267.514H108.215V242.483Z" fill="white"/>
<path d="M127.95 242.483H144.894V246.27H132.246V252.825H143.347V256.401H132.246V267.514H127.95V242.483Z" fill="white"/>
<path d="M170.984 264.709C170.067 265.855 169.047 266.696 167.925 267.233C166.825 267.748 165.553 268.005 164.11 268.005C162.987 268.005 161.944 267.841 160.982 267.514C160.043 267.163 159.229 266.673 158.542 266.042C157.854 265.411 157.316 264.639 156.926 263.728C156.56 262.793 156.377 261.741 156.377 260.573C156.377 259.685 156.537 258.878 156.858 258.154C157.179 257.429 157.602 256.775 158.129 256.191C158.656 255.583 159.252 255.045 159.917 254.578C160.604 254.111 161.303 253.69 162.013 253.316C161.692 252.895 161.383 252.486 161.085 252.089C160.787 251.668 160.524 251.236 160.295 250.792C160.066 250.348 159.882 249.88 159.745 249.39C159.607 248.899 159.539 248.385 159.539 247.847C159.539 246.936 159.687 246.118 159.985 245.393C160.306 244.669 160.741 244.049 161.291 243.535C161.841 242.998 162.483 242.589 163.216 242.308C163.949 242.028 164.728 241.887 165.553 241.887C166.332 241.887 167.088 242.016 167.822 242.273C168.578 242.507 169.231 242.881 169.781 243.395C170.353 243.886 170.812 244.505 171.155 245.253C171.499 246.001 171.671 246.877 171.671 247.882C171.671 248.63 171.545 249.319 171.293 249.951C171.064 250.582 170.743 251.166 170.33 251.703C169.941 252.218 169.471 252.685 168.921 253.106C168.394 253.526 167.833 253.9 167.237 254.227L171.052 258.925C171.19 258.528 171.327 258.072 171.465 257.558C171.602 257.044 171.717 256.378 171.808 255.56H175.245C175.131 256.658 174.913 257.733 174.592 258.785C174.294 259.837 173.871 260.806 173.321 261.695L178.029 267.514H173.217L170.984 264.709ZM164.075 255.945C163.709 256.179 163.308 256.413 162.872 256.646C162.437 256.88 162.025 257.172 161.635 257.523C161.268 257.873 160.948 258.294 160.673 258.785C160.421 259.276 160.295 259.895 160.295 260.643C160.295 261.998 160.661 263.038 161.395 263.763C162.151 264.487 163.102 264.85 164.247 264.85C164.957 264.85 165.565 264.756 166.069 264.569C166.573 264.359 166.997 264.113 167.34 263.833C167.707 263.553 168.005 263.249 168.234 262.922C168.486 262.594 168.704 262.302 168.887 262.045L164.075 255.945ZM165.656 244.867C164.923 244.867 164.304 245.124 163.8 245.639C163.296 246.129 163.044 246.795 163.044 247.637C163.044 248.057 163.113 248.455 163.25 248.829C163.411 249.179 163.594 249.53 163.8 249.88C164.029 250.208 164.27 250.535 164.522 250.862C164.797 251.189 165.049 251.505 165.278 251.809C165.645 251.551 166 251.294 166.344 251.037C166.687 250.757 166.997 250.465 167.272 250.161C167.547 249.834 167.764 249.471 167.925 249.074C168.085 248.677 168.165 248.233 168.165 247.742C168.165 246.924 167.936 246.246 167.478 245.709C167.02 245.148 166.412 244.867 165.656 244.867Z" fill="white"/>
<path d="M189.741 242.483H201.461C204.164 242.483 206.192 243.079 207.544 244.271C208.896 245.463 209.572 247.123 209.572 249.249C209.572 250.441 209.4 251.435 209.056 252.229C208.713 253 208.312 253.631 207.853 254.122C207.395 254.59 206.937 254.929 206.479 255.139C206.043 255.349 205.722 255.489 205.516 255.56V255.63C205.883 255.676 206.272 255.793 206.685 255.98C207.12 256.167 207.521 256.471 207.888 256.892C208.254 257.289 208.552 257.815 208.781 258.469C209.033 259.124 209.159 259.942 209.159 260.923C209.159 262.396 209.262 263.74 209.469 264.955C209.698 266.147 210.041 267 210.5 267.514H205.894C205.574 266.976 205.379 266.38 205.31 265.726C205.264 265.072 205.241 264.441 205.241 263.833C205.241 262.688 205.173 261.706 205.035 260.888C204.898 260.047 204.646 259.357 204.279 258.82C203.912 258.259 203.408 257.85 202.767 257.593C202.148 257.336 201.346 257.207 200.361 257.207H194.037V267.514H189.741V242.483ZM194.037 253.877H201.083C202.457 253.877 203.5 253.55 204.21 252.895C204.92 252.218 205.276 251.213 205.276 249.88C205.276 249.086 205.161 248.443 204.932 247.952C204.703 247.438 204.382 247.041 203.97 246.76C203.58 246.48 203.122 246.293 202.595 246.199C202.091 246.106 201.564 246.059 201.014 246.059H194.037V253.877Z" fill="white"/>
<path d="M213.94 242.483H231.606V246.27H218.236V252.825H230.609V256.401H218.236V263.728H231.847V267.514H213.94V242.483Z" fill="white"/>
<path d="M238.407 259.17C238.407 260.129 238.567 260.947 238.888 261.624C239.209 262.302 239.656 262.863 240.229 263.307C240.801 263.728 241.454 264.043 242.188 264.254C242.944 264.441 243.757 264.534 244.628 264.534C245.567 264.534 246.369 264.429 247.034 264.219C247.698 263.985 248.237 263.693 248.649 263.342C249.061 262.992 249.359 262.594 249.543 262.15C249.726 261.683 249.818 261.215 249.818 260.748C249.818 259.79 249.6 259.089 249.165 258.645C248.752 258.177 248.294 257.85 247.79 257.663C246.919 257.336 245.899 257.032 244.731 256.752C243.585 256.448 242.165 256.062 240.469 255.595C239.415 255.314 238.533 254.952 237.823 254.508C237.135 254.04 236.585 253.526 236.173 252.965C235.761 252.404 235.463 251.809 235.279 251.177C235.119 250.546 235.039 249.904 235.039 249.249C235.039 247.987 235.291 246.901 235.795 245.989C236.322 245.054 237.009 244.283 237.857 243.675C238.705 243.068 239.667 242.624 240.744 242.343C241.821 242.039 242.909 241.887 244.009 241.887C245.292 241.887 246.495 242.063 247.618 242.413C248.764 242.74 249.76 243.243 250.608 243.921C251.479 244.598 252.166 245.44 252.67 246.445C253.174 247.426 253.426 248.572 253.426 249.88H249.13C249.016 248.268 248.477 247.134 247.515 246.48C246.552 245.802 245.327 245.463 243.837 245.463C243.333 245.463 242.818 245.522 242.291 245.639C241.764 245.732 241.283 245.907 240.847 246.164C240.412 246.398 240.045 246.725 239.747 247.146C239.472 247.567 239.335 248.092 239.335 248.724C239.335 249.612 239.598 250.313 240.125 250.827C240.675 251.318 241.386 251.692 242.256 251.949C242.348 251.972 242.703 252.077 243.322 252.264C243.963 252.428 244.674 252.615 245.453 252.825C246.232 253.035 246.988 253.246 247.721 253.456C248.477 253.643 249.016 253.783 249.336 253.877C250.138 254.134 250.837 254.485 251.433 254.929C252.029 255.373 252.521 255.887 252.911 256.471C253.323 257.032 253.621 257.64 253.804 258.294C254.011 258.948 254.114 259.603 254.114 260.257C254.114 261.659 253.827 262.863 253.255 263.868C252.705 264.85 251.971 265.656 251.055 266.287C250.138 266.918 249.096 267.374 247.927 267.654C246.759 267.958 245.567 268.11 244.353 268.11C242.955 268.11 241.638 267.935 240.4 267.584C239.163 267.233 238.086 266.696 237.17 265.971C236.253 265.247 235.52 264.324 234.97 263.202C234.42 262.057 234.134 260.713 234.111 259.17H238.407Z" fill="white"/>
<path d="M268.323 245.463C267.017 245.463 265.883 245.732 264.921 246.27C263.981 246.807 263.214 247.532 262.618 248.443C262.022 249.331 261.575 250.348 261.278 251.493C261.003 252.638 260.865 253.807 260.865 254.999C260.865 256.191 261.003 257.359 261.278 258.504C261.575 259.65 262.022 260.678 262.618 261.589C263.214 262.477 263.981 263.19 264.921 263.728C265.883 264.265 267.017 264.534 268.323 264.534C269.629 264.534 270.752 264.265 271.691 263.728C272.654 263.19 273.433 262.477 274.029 261.589C274.624 260.678 275.06 259.65 275.335 258.504C275.632 257.359 275.781 256.191 275.781 254.999C275.781 253.807 275.632 252.638 275.335 251.493C275.06 250.348 274.624 249.331 274.029 248.443C273.433 247.532 272.654 246.807 271.691 246.27C270.752 245.732 269.629 245.463 268.323 245.463ZM268.323 241.887C270.156 241.887 271.795 242.238 273.238 242.939C274.704 243.64 275.942 244.587 276.95 245.779C277.958 246.971 278.726 248.361 279.253 249.951C279.803 251.54 280.077 253.222 280.077 254.999C280.077 256.798 279.803 258.493 279.253 260.082C278.726 261.671 277.958 263.062 276.95 264.254C275.942 265.446 274.704 266.392 273.238 267.093C271.795 267.771 270.156 268.11 268.323 268.11C266.49 268.11 264.84 267.771 263.374 267.093C261.931 266.392 260.705 265.446 259.697 264.254C258.688 263.062 257.909 261.671 257.359 260.082C256.832 258.493 256.569 256.798 256.569 254.999C256.569 253.222 256.832 251.54 257.359 249.951C257.909 248.361 258.688 246.971 259.697 245.779C260.705 244.587 261.931 243.64 263.374 242.939C264.84 242.238 266.49 241.887 268.323 241.887Z" fill="white"/>
<path d="M283.988 242.483H295.707C298.411 242.483 300.439 243.079 301.791 244.271C303.143 245.463 303.819 247.123 303.819 249.249C303.819 250.441 303.647 251.435 303.303 252.229C302.959 253 302.558 253.631 302.1 254.122C301.642 254.59 301.184 254.929 300.725 255.139C300.29 255.349 299.969 255.489 299.763 255.56V255.63C300.13 255.676 300.519 255.793 300.932 255.98C301.367 256.167 301.768 256.471 302.134 256.892C302.501 257.289 302.799 257.815 303.028 258.469C303.28 259.124 303.406 259.942 303.406 260.923C303.406 262.396 303.509 263.74 303.715 264.955C303.945 266.147 304.288 267 304.747 267.514H300.141C299.82 266.976 299.626 266.38 299.557 265.726C299.511 265.072 299.488 264.441 299.488 263.833C299.488 262.688 299.419 261.706 299.282 260.888C299.144 260.047 298.892 259.357 298.526 258.82C298.159 258.259 297.655 257.85 297.013 257.593C296.395 257.336 295.593 257.207 294.608 257.207H288.284V267.514H283.988V242.483ZM288.284 253.877H295.329C296.704 253.877 297.747 253.55 298.457 252.895C299.167 252.218 299.522 251.213 299.522 249.88C299.522 249.086 299.408 248.443 299.179 247.952C298.95 247.438 298.629 247.041 298.216 246.76C297.827 246.48 297.369 246.293 296.842 246.199C296.338 246.106 295.811 246.059 295.261 246.059H288.284V253.877Z" fill="white"/>
<path d="M305.246 242.483H325.111V246.27H317.309V267.514H313.013V246.27H305.246V242.483Z" fill="white"/>
</svg>
